<svg width="166" height="40" viewBox="0 0 166 40" fill="none" xmlns="http://www.w3.org/2000/svg">
<path d="M47.8685 29L42.918 9.53333H46.8305L50.8495 26.4667L49.8115 25.8533H52.473L51.3019 26.4667L54.4692 10.28H57.7163L53.7772 29H47.8685ZM59.473 29L55.1878 10.28H58.568L62.2144 26.4667L61.0699 25.8533H63.6783L62.6669 26.4667L66.2068 9.53333H69.9064L65.4882 29H59.473Z" fill="#1A253B"/>
<path d="M78.427 29.5067C77.1849 29.5067 76.0936 29.2933 75.1532 28.8667C74.2305 28.44 73.4587 27.8711 72.8376 27.16C72.2344 26.4311 71.773 25.6222 71.4536 24.7333C71.152 23.8444 71.0012 22.9378 71.0012 22.0133V21.5067C71.0012 20.5467 71.152 19.6222 71.4536 18.7333C71.773 17.8267 72.2344 17.0267 72.8376 16.3333C73.4587 15.6222 74.2217 15.0622 75.1266 14.6533C76.0315 14.2267 77.0784 14.0133 78.2673 14.0133C79.8287 14.0133 81.1329 14.36 82.1798 15.0533C83.2444 15.7289 84.0429 16.6267 84.5752 17.7467C85.1075 18.8489 85.3737 20.04 85.3737 21.32V22.6533H72.5715V20.3867H83.0581L81.9136 21.5067C81.9136 20.5822 81.7805 19.7911 81.5144 19.1333C81.2482 18.4756 80.8401 17.9689 80.2901 17.6133C79.7577 17.2578 79.0835 17.08 78.2673 17.08C77.451 17.08 76.759 17.2667 76.1912 17.64C75.6234 18.0133 75.1887 18.5556 74.8871 19.2667C74.6032 19.96 74.4612 20.7956 74.4612 21.7733C74.4612 22.68 74.6032 23.4889 74.8871 24.2C75.171 24.8933 75.6057 25.4444 76.1912 25.8533C76.7768 26.2444 77.522 26.44 78.427 26.44C79.3319 26.44 80.0683 26.2622 80.6361 25.9067C81.2039 25.5333 81.5676 25.08 81.7273 24.5467H85.1341C84.9212 25.5422 84.5131 26.4133 83.9098 27.16C83.3065 27.9067 82.5347 28.4844 81.5942 28.8933C80.6716 29.3022 79.6158 29.5067 78.427 29.5067Z" fill="#1A253B"/>
<path d="M88.6505 29V9.53333H92.3501V29H88.6505ZM86.8407 12.3067V9.53333H92.3501V12.3067H86.8407Z" fill="#1A253B"/>
<path d="M96.76 29V9.53333H100.46V29H96.76ZM94.9502 12.3067V9.53333H100.46V12.3067H94.9502Z" fill="#1A253B"/>
<path d="M113.733 29.5067C111.976 29.5067 110.468 29.1956 109.208 28.5733C107.948 27.9511 106.919 27.1422 106.12 26.1467C105.34 25.1511 104.763 24.0667 104.39 22.8933C104.018 21.72 103.832 20.5911 103.832 19.5067V18.92C103.832 17.7111 104.018 16.52 104.39 15.3467C104.781 14.1733 105.375 13.1067 106.174 12.1467C106.972 11.1867 107.984 10.4222 109.208 9.85333C110.45 9.26666 111.914 8.97333 113.6 8.97333C115.356 8.97333 116.882 9.29333 118.177 9.93333C119.49 10.5556 120.537 11.4444 121.318 12.6C122.099 13.7378 122.569 15.0711 122.729 16.6H118.923C118.781 15.7111 118.461 14.9644 117.964 14.36C117.485 13.7378 116.873 13.2756 116.128 12.9733C115.383 12.6533 114.54 12.4933 113.6 12.4933C112.641 12.4933 111.79 12.6622 111.044 13C110.299 13.32 109.678 13.7822 109.181 14.3867C108.684 14.9911 108.303 15.7022 108.037 16.52C107.788 17.3378 107.664 18.2444 107.664 19.24C107.664 20.2 107.788 21.0889 108.037 21.9067C108.303 22.7244 108.693 23.4444 109.208 24.0667C109.722 24.6711 110.352 25.1422 111.098 25.48C111.861 25.8178 112.739 25.9867 113.733 25.9867C115.188 25.9867 116.412 25.6311 117.406 24.92C118.417 24.1911 119.029 23.1778 119.242 21.88H123.048C122.871 23.2667 122.4 24.5378 121.637 25.6933C120.874 26.8489 119.828 27.7733 118.497 28.4667C117.166 29.16 115.578 29.5067 113.733 29.5067Z" fill="#1A253B"/>
<path d="M134.701 29V24.7067H134.089V19.9333C134.089 19.0978 133.885 18.4756 133.477 18.0667C133.069 17.6578 132.439 17.4533 131.587 17.4533C131.144 17.4533 130.611 17.4622 129.99 17.48C129.369 17.4978 128.739 17.5244 128.101 17.56C127.479 17.5778 126.921 17.6044 126.424 17.64V14.4933C126.832 14.4578 127.293 14.4222 127.808 14.3867C128.322 14.3511 128.846 14.3333 129.378 14.3333C129.928 14.3156 130.443 14.3067 130.922 14.3067C132.412 14.3067 133.645 14.5022 134.621 14.8933C135.615 15.2844 136.36 15.8978 136.857 16.7333C137.372 17.5689 137.629 18.6622 137.629 20.0133V29H134.701ZM130.043 29.3733C128.997 29.3733 128.074 29.1867 127.275 28.8133C126.495 28.44 125.883 27.9067 125.439 27.2133C125.013 26.52 124.8 25.6844 124.8 24.7067C124.8 23.64 125.057 22.7689 125.572 22.0933C126.104 21.4178 126.841 20.9111 127.781 20.5733C128.739 20.2356 129.857 20.0667 131.135 20.0667H134.488V22.28H131.081C130.23 22.28 129.573 22.4933 129.112 22.92C128.668 23.3289 128.447 23.8622 128.447 24.52C128.447 25.1778 128.668 25.7111 129.112 26.12C129.573 26.5289 130.23 26.7333 131.081 26.7333C131.596 26.7333 132.066 26.6444 132.492 26.4667C132.936 26.2711 133.299 25.9511 133.583 25.5067C133.885 25.0444 134.054 24.4222 134.089 23.64L134.994 24.68C134.905 25.6933 134.657 26.5467 134.249 27.24C133.858 27.9333 133.308 28.4667 132.599 28.84C131.907 29.1956 131.055 29.3733 130.043 29.3733Z" fill="#1A253B"/>
<path d="M141.592 29V14.52H144.52V20.6533H144.44C144.44 18.5733 144.883 17 145.77 15.9333C146.658 14.8667 147.962 14.3333 149.683 14.3333H150.215V17.56H149.204C147.962 17.56 146.995 17.8978 146.303 18.5733C145.629 19.2311 145.291 20.1911 145.291 21.4533V29H141.592Z" fill="#1A253B"/>
<path d="M159.054 29.5067C157.812 29.5067 156.721 29.2933 155.78 28.8667C154.858 28.44 154.086 27.8711 153.465 27.16C152.861 26.4311 152.4 25.6222 152.081 24.7333C151.779 23.8444 151.628 22.9378 151.628 22.0133V21.5067C151.628 20.5467 151.779 19.6222 152.081 18.7333C152.4 17.8267 152.861 17.0267 153.465 16.3333C154.086 15.6222 154.849 15.0622 155.754 14.6533C156.659 14.2267 157.706 14.0133 158.894 14.0133C160.456 14.0133 161.76 14.36 162.807 15.0533C163.872 15.7289 164.67 16.6267 165.202 17.7467C165.735 18.8489 166.001 20.04 166.001 21.32V22.6533H153.199V20.3867H163.685L162.541 21.5067C162.541 20.5822 162.408 19.7911 162.141 19.1333C161.875 18.4756 161.467 17.9689 160.917 17.6133C160.385 17.2578 159.711 17.08 158.894 17.08C158.078 17.08 157.386 17.2667 156.818 17.64C156.251 18.0133 155.816 18.5556 155.514 19.2667C155.23 19.96 155.088 20.7956 155.088 21.7733C155.088 22.68 155.23 23.4889 155.514 24.2C155.798 24.8933 156.233 25.4444 156.818 25.8533C157.404 26.2444 158.149 26.44 159.054 26.44C159.959 26.44 160.695 26.2622 161.263 25.9067C161.831 25.5333 162.195 25.08 162.354 24.5467H165.761C165.548 25.5422 165.14 26.4133 164.537 27.16C163.934 27.9067 163.162 28.4844 162.221 28.8933C161.299 29.3022 160.243 29.5067 159.054 29.5067Z" fill="#1A253B"/>
<path fill-rule="evenodd" clip-rule="evenodd" d="M30.6348 20L32.3764 18.255C33.3383 17.2913 33.3383 15.7288 32.3764 14.7651C31.4145 13.8014 29.855 13.8014 28.8931 14.7651L23.6683 20L28.8931 25.2349C29.855 26.1986 31.4145 26.1986 32.3764 25.2349C33.3383 24.2712 33.3383 22.7087 32.3764 21.745L30.6348 20ZM27.7321 13.6018C29.3352 11.9956 31.9344 11.9956 33.5375 13.6018C35.1406 15.208 35.1406 17.8122 33.5375 19.4183L32.9569 20L33.5375 20.5817C35.1406 22.1878 35.1406 24.792 33.5375 26.3982C31.9344 28.0044 29.3352 28.0044 27.7321 26.3982L21.3461 20L27.7321 13.6018Z" fill="#1A253B"/>
<path fill-rule="evenodd" clip-rule="evenodd" d="M9.28906 20L7.54743 21.745C6.58556 22.7087 6.58556 24.2712 7.54743 25.2349C8.50931 26.1986 10.0688 26.1986 11.0307 25.2349L16.2556 20L11.0307 14.7651C10.0688 13.8014 8.50931 13.8014 7.54743 14.7651C6.58556 15.7288 6.58556 17.2913 7.54743 18.255L9.28906 20ZM12.1918 26.3982C10.5887 28.0044 7.98947 28.0044 6.38635 26.3982C4.78322 24.792 4.78322 22.1878 6.38635 20.5817L6.96689 20L6.38635 19.4183C4.78322 17.8122 4.78322 15.208 6.38635 13.6018C7.98947 11.9956 10.5887 11.9956 12.1918 13.6018L18.5777 20L12.1918 26.3982Z" fill="#1A253B"/>
<path fill-rule="evenodd" clip-rule="evenodd" d="M19.9613 30.6936L21.7029 32.4385C22.6648 33.4022 24.2243 33.4022 25.1862 32.4385C26.1481 31.4748 26.1481 29.9123 25.1862 28.9486L19.9613 23.7137L14.7364 28.9486C13.7746 29.9123 13.7746 31.4748 14.7364 32.4385C15.6983 33.4022 17.2578 33.4022 18.2197 32.4385L19.9613 30.6936ZM26.3473 27.7853C27.9504 29.3915 27.9504 31.9956 26.3473 33.6018C24.7442 35.208 22.145 35.208 20.5419 33.6018L19.9613 33.0202L19.3808 33.6018C17.7776 35.208 15.1785 35.208 13.5753 33.6018C11.9722 31.9956 11.9722 29.3915 13.5753 27.7853L19.9613 21.3871L26.3473 27.7853Z" fill="#1A253B"/>
<path fill-rule="evenodd" clip-rule="evenodd" d="M19.9625 9.30646L18.2209 7.5615C17.259 6.59779 15.6995 6.59779 14.7376 7.5615C13.7758 8.52521 13.7758 10.0877 14.7376 11.0514L19.9625 16.2863L25.1874 11.0514C26.1493 10.0877 26.1493 8.52521 25.1874 7.5615C24.2255 6.59778 22.666 6.59779 21.7041 7.5615L19.9625 9.30646ZM13.5765 12.2147C11.9734 10.6085 11.9734 8.00438 13.5765 6.39819C15.1797 4.792 17.7788 4.792 19.382 6.39819L19.9625 6.97985L20.5431 6.39819C22.1462 4.792 24.7454 4.792 26.3485 6.39819C27.9516 8.00438 27.9516 10.6085 26.3485 12.2147L19.9625 18.6129L13.5765 12.2147Z" fill="#1A253B"/>
</svg>
