<svg width="65" height="65" viewBox="0 0 65 65" fill="none" xmlns="http://www.w3.org/2000/svg">
<path d="M21.6668 10.8333V13.5416" stroke="black" stroke-linecap="round" stroke-linejoin="round"/>
<path d="M10.8335 24.375H13.5418" stroke="black" stroke-linecap="round" stroke-linejoin="round"/>
<path d="M11.3207 13.5417L14.029 16.25" stroke="black" stroke-linecap="round" stroke-linejoin="round"/>
<path d="M43.3335 54.1666V51.4583" stroke="black" stroke-linecap="round" stroke-linejoin="round"/>
<path d="M54.1668 40.625H51.4585" stroke="black" stroke-linecap="round" stroke-linejoin="round"/>
<path d="M53.6791 51.4583L50.9708 48.75" stroke="black" stroke-linecap="round" stroke-linejoin="round"/>
<path fill-rule="evenodd" clip-rule="evenodd" d="M48.081 15.5648H49.9416C53.0237 15.5648 55.5208 18.0619 55.5208 21.144V21.144C55.5208 24.226 53.0237 26.7231 49.9416 26.7231H47.3254L42.5452 31.6821C41.1504 33.1283 38.7183 32.5785 38.0846 30.6719L36.8062 26.8396L32.9739 25.5613C31.0673 24.9248 30.5175 22.4954 31.9637 21.1006L36.9227 16.3204V13.7042C36.9227 10.6221 39.4198 8.125 42.5018 8.125V8.125C45.5839 8.125 48.081 10.6221 48.081 13.7042V15.5648Z" stroke="black" stroke-linecap="round" stroke-linejoin="round"/>
<path fill-rule="evenodd" clip-rule="evenodd" d="M16.9191 49.4353H15.0585C11.9764 49.4353 9.47934 46.9382 9.47934 43.8561V43.8561C9.47934 40.774 11.9764 38.2769 15.0585 38.2769H17.6748L22.4143 33.3586C23.8254 31.8934 26.29 32.4513 26.9345 34.3823L28.1939 38.1578L31.9693 39.4171C33.9004 40.0617 34.4583 42.5236 32.9931 43.9373L28.0748 48.6769V51.2932C28.0748 54.3753 25.5777 56.8723 22.4956 56.8723V56.8723C19.4135 56.8723 16.9164 54.3753 16.9164 51.2932V49.4353H16.9191Z" stroke="black" stroke-linecap="round" stroke-linejoin="round"/>
</svg>
