<svg width="24" height="24" viewBox="0 0 24 24" fill="none" xmlns="http://www.w3.org/2000/svg">
<path d="M21.971 18.3301C21.971 18.6901 21.891 19.0601 21.721 19.4201C21.551 19.7801 21.331 20.1201 21.041 20.4401C20.551 20.9801 20.011 21.3701 19.401 21.6201C18.801 21.8701 18.151 22.0001 17.451 22.0001C16.431 22.0001 15.341 21.7601 14.191 21.2701C13.041 20.7801 11.891 20.1201 10.751 19.2901C9.60098 18.4501 8.51098 17.5201 7.47098 16.4901C6.44098 15.4501 5.51098 14.3601 4.68098 13.2201C3.86098 12.0801 3.20098 10.9401 2.72098 9.81006C2.24098 8.67006 2.00098 7.58006 2.00098 6.54006C2.00098 5.86006 2.12098 5.21006 2.36098 4.61006C2.60098 4.00006 2.98098 3.44006 3.51098 2.94006C4.15098 2.31006 4.85098 2.00006 5.59098 2.00006C5.87098 2.00006 6.15098 2.06006 6.40098 2.18006C6.66098 2.30006 6.89098 2.48006 7.07098 2.74006L9.39098 6.01006C9.57098 6.26006 9.70098 6.49006 9.79098 6.71006C9.88098 6.92006 9.93098 7.13006 9.93098 7.32006C9.93098 7.56006 9.86098 7.80006 9.72098 8.03006C9.59098 8.26006 9.40098 8.50006 9.16098 8.74006L8.40098 9.53006C8.29098 9.64006 8.24098 9.77006 8.24098 9.93006C8.24098 10.0101 8.25098 10.0801 8.27098 10.1601C8.30098 10.2401 8.33098 10.3001 8.35098 10.3601C8.53098 10.6901 8.84098 11.1201 9.28098 11.6401C9.73098 12.1601 10.211 12.6901 10.731 13.2201C11.271 13.7501 11.791 14.2401 12.321 14.6901C12.841 15.1301 13.271 15.4301 13.611 15.6101C13.661 15.6301 13.721 15.6601 13.791 15.6901C13.871 15.7201 13.951 15.7301 14.041 15.7301C14.211 15.7301 14.341 15.6701 14.451 15.5601L15.211 14.8101C15.461 14.5601 15.701 14.3701 15.931 14.2501C16.161 14.1101 16.391 14.0401 16.641 14.0401C16.831 14.0401 17.031 14.0801 17.251 14.1701C17.471 14.2601 17.701 14.3901 17.951 14.5601L21.261 16.9101C21.521 17.0901 21.701 17.3001 21.811 17.5501C21.911 17.8001 21.971 18.0501 21.971 18.3301Z" stroke="black" stroke-miterlimit="10"/>
</svg>
