<svg width="65" height="65" viewBox="0 0 65 65" fill="none" xmlns="http://www.w3.org/2000/svg">
<path fill-rule="evenodd" clip-rule="evenodd" d="M50.5638 45.4114L50.1042 45.878L49.6291 45.3759C48.8229 44.5157 47.7001 44.0225 46.5212 44.0107C45.3423 43.9988 44.2098 44.4694 43.3864 45.3132L43.2898 45.4113C41.5423 47.2071 41.5423 50.0679 43.2898 51.8638L48.041 56.688C48.5852 57.2409 49.3285 57.5522 50.1042 57.5522C50.8799 57.5522 51.6232 57.2409 52.1673 56.688L56.9185 51.8639C58.666 50.068 58.666 47.2072 56.9185 45.4114V45.4114C56.0804 44.56 54.9358 44.0805 53.7411 44.0805C52.5465 44.0805 51.4018 44.56 50.5638 45.4114V45.4114Z" stroke="black" stroke-linecap="round" stroke-linejoin="round"/>
<path d="M56.8741 32.5C56.8719 34.2252 56.687 35.9453 56.3226 37.6316" stroke="black" stroke-linecap="round" stroke-linejoin="round"/>
<path d="M32.5 8.125C45.9619 8.125 56.875 19.0381 56.875 32.5" stroke="black" stroke-linecap="round" stroke-linejoin="round"/>
<path d="M8.125 32.5C8.125 19.0381 19.0381 8.125 32.5 8.125" stroke="black" stroke-linecap="round" stroke-linejoin="round"/>
<path d="M37.6316 56.3234C30.4311 57.8826 22.9118 56.0982 17.1795 51.47C11.4473 46.8418 8.11834 39.8674 8.12501 32.5" stroke="black" stroke-linecap="round" stroke-linejoin="round"/>
<path d="M16.25 32.5H25.7286L29.7919 38.5937L35.2081 26.4062L39.2714 32.5H48.75" stroke="black" stroke-linecap="round" stroke-linejoin="round"/>
</svg>
