<svg width="598" height="418" viewBox="0 0 598 418" fill="none" xmlns="http://www.w3.org/2000/svg">
<path d="M299 418C464.133 418 598 410.177 598 400.528C598 390.878 464.133 383.055 299 383.055C133.867 383.055 0 390.878 0 400.528C0 410.177 133.867 418 299 418Z" fill="#F5F5F5"/>
<path d="M238.195 57.6415C238.043 57.6416 237.896 57.5819 237.786 57.4752C237.677 57.3686 237.613 57.2233 237.609 57.0704V46.9606L227.108 57.5026C226.999 57.6111 226.852 57.6721 226.699 57.6721C226.546 57.6721 226.399 57.6111 226.29 57.5026C226.182 57.3941 226.121 57.247 226.121 57.0936C226.121 56.9402 226.182 56.7931 226.29 56.6846L237.779 45.1547C237.862 45.077 237.965 45.025 238.077 45.005C238.188 44.985 238.303 44.9978 238.408 45.0419C238.512 45.0861 238.602 45.1596 238.665 45.2536C238.729 45.3475 238.764 45.458 238.766 45.5715V57.0704C238.762 57.2207 238.701 57.3637 238.595 57.47C238.488 57.5762 238.346 57.6376 238.195 57.6415Z" fill="#263238"/>
<path d="M251.506 57.6416C251.356 57.6377 251.213 57.5763 251.107 57.47C251.001 57.3638 250.939 57.2207 250.935 57.0705V46.9607L240.403 57.5027C240.294 57.6112 240.147 57.6721 239.994 57.6721C239.841 57.6721 239.694 57.6112 239.585 57.5027C239.477 57.3942 239.416 57.2471 239.416 57.0937C239.416 56.9403 239.477 56.7931 239.585 56.6846L251.074 45.1857C251.157 45.108 251.26 45.056 251.372 45.036C251.483 45.0159 251.598 45.0288 251.703 45.0729C251.807 45.117 251.897 45.1905 251.96 45.2845C252.024 45.3785 252.059 45.4889 252.061 45.6024V57.1014C252.05 57.2436 251.987 57.3769 251.885 57.4763C251.783 57.5758 251.648 57.6345 251.506 57.6416Z" fill="#263238"/>
<path d="M264.83 57.6415C264.679 57.6415 264.534 57.5814 264.427 57.4743C264.32 57.3672 264.26 57.2219 264.26 57.0704V46.9606L253.758 57.5026C253.65 57.6111 253.503 57.6721 253.349 57.6721C253.196 57.6721 253.049 57.6111 252.941 57.5026C252.832 57.3941 252.771 57.247 252.771 57.0936C252.771 56.9402 252.832 56.7931 252.941 56.6846L264.429 45.1856C264.507 45.1031 264.607 45.0467 264.718 45.0246C264.829 45.0024 264.944 45.0156 265.046 45.0621C265.155 45.1051 265.248 45.1794 265.314 45.2757C265.38 45.3719 265.415 45.4856 265.416 45.6023V57.1013C265.405 57.2487 265.338 57.3863 265.229 57.4864C265.121 57.5866 264.978 57.642 264.83 57.6415Z" fill="#263238"/>
<path d="M273.526 57.6416C273.373 57.6417 273.226 57.582 273.117 57.4753C273.007 57.3686 272.944 57.2234 272.94 57.0705V46.9607L262.438 57.5027C262.329 57.6112 262.182 57.6721 262.029 57.6721C261.876 57.6721 261.729 57.6112 261.62 57.5027C261.512 57.3942 261.451 57.2471 261.451 57.0937C261.451 56.9403 261.512 56.7931 261.62 56.6846L273.109 45.1857C273.192 45.108 273.295 45.056 273.407 45.036C273.519 45.0159 273.634 45.0288 273.738 45.0729C273.842 45.117 273.932 45.1905 273.995 45.2845C274.059 45.3785 274.094 45.4889 274.096 45.6024V57.1014C274.085 57.2462 274.02 57.3815 273.915 57.4813C273.809 57.5811 273.671 57.6382 273.526 57.6416Z" fill="#263238"/>
<path d="M291.477 57.6416C291.324 57.6417 291.177 57.582 291.068 57.4753C290.958 57.3686 290.895 57.2234 290.891 57.0705V46.9607L280.389 57.5027C280.281 57.6112 280.134 57.6721 279.98 57.6721C279.827 57.6721 279.68 57.6112 279.572 57.5027C279.463 57.3942 279.402 57.2471 279.402 57.0937C279.402 56.9403 279.463 56.7931 279.572 56.6846L291.06 45.1857C291.143 45.108 291.246 45.056 291.358 45.036C291.47 45.0159 291.585 45.0288 291.689 45.0729C291.794 45.117 291.883 45.1905 291.947 45.2845C292.01 45.3785 292.045 45.4889 292.047 45.6024V57.1014C292.036 57.2462 291.971 57.3815 291.866 57.4813C291.76 57.5811 291.622 57.6382 291.477 57.6416Z" fill="#263238"/>
<path d="M304.786 57.6416C304.635 57.6377 304.493 57.5763 304.386 57.47C304.28 57.3638 304.219 57.2207 304.215 57.0705V46.9607L293.713 57.5027C293.605 57.6112 293.458 57.6721 293.304 57.6721C293.151 57.6721 293.004 57.6112 292.896 57.5027C292.787 57.3942 292.727 57.2471 292.727 57.0937C292.727 56.9403 292.787 56.7931 292.896 56.6846L304.385 45.1857C304.467 45.108 304.571 45.056 304.682 45.036C304.794 45.0159 304.909 45.0288 305.013 45.0729C305.118 45.117 305.207 45.1905 305.271 45.2845C305.334 45.3785 305.369 45.4889 305.372 45.6024V57.1014C305.36 57.2488 305.293 57.3863 305.184 57.4865C305.076 57.5867 304.933 57.6421 304.786 57.6416Z" fill="#263238"/>
<path d="M325.819 57.6416C325.669 57.6377 325.526 57.5763 325.42 57.47C325.313 57.3638 325.252 57.2207 325.248 57.0705V46.9607L314.746 57.5027C314.638 57.6112 314.491 57.6721 314.338 57.6721C314.184 57.6721 314.037 57.6112 313.929 57.5027C313.821 57.3942 313.76 57.2471 313.76 57.0937C313.76 56.9403 313.821 56.7931 313.929 56.6846L325.418 45.1857C325.5 45.108 325.604 45.056 325.716 45.036C325.827 45.0159 325.942 45.0288 326.047 45.0729C326.151 45.117 326.241 45.1905 326.304 45.2845C326.368 45.3785 326.403 45.4889 326.405 45.6024V57.1014C326.393 57.2488 326.326 57.3863 326.218 57.4865C326.109 57.5867 325.966 57.6421 325.819 57.6416Z" fill="#263238"/>
<path d="M339.097 57.6415C338.945 57.6415 338.8 57.5814 338.693 57.4743C338.586 57.3672 338.526 57.2219 338.526 57.0704V46.9606L328.071 57.5026C327.962 57.6111 327.815 57.6721 327.662 57.6721C327.509 57.6721 327.362 57.6111 327.253 57.5026C327.145 57.3941 327.084 57.247 327.084 57.0936C327.084 56.9402 327.145 56.7931 327.253 56.6846L338.742 45.1856C338.819 45.1031 338.92 45.0467 339.031 45.0246C339.141 45.0024 339.256 45.0156 339.359 45.0621C339.467 45.1051 339.56 45.1794 339.626 45.2757C339.692 45.3719 339.728 45.4856 339.729 45.6023V57.1013C339.723 57.1784 339.702 57.2536 339.667 57.3226C339.632 57.3915 339.584 57.4529 339.525 57.5031C339.466 57.5533 339.398 57.5914 339.325 57.6151C339.251 57.6389 339.174 57.6479 339.097 57.6415Z" fill="#263238"/>
<path d="M349.382 57.6415C349.229 57.6416 349.082 57.5819 348.973 57.4752C348.863 57.3686 348.8 57.2233 348.796 57.0704V46.9606L338.294 57.5026C338.241 57.5572 338.177 57.6006 338.107 57.6303C338.037 57.6599 337.961 57.6752 337.885 57.6752C337.809 57.6752 337.734 57.6599 337.663 57.6303C337.593 57.6006 337.53 57.5572 337.477 57.5026C337.374 57.3913 337.316 57.2453 337.316 57.0936C337.316 56.9419 337.374 56.7959 337.477 56.6846L348.965 45.1547C349.048 45.077 349.151 45.025 349.263 45.005C349.375 44.985 349.49 44.9978 349.594 45.0419C349.699 45.0861 349.788 45.1596 349.852 45.2536C349.915 45.3475 349.95 45.458 349.952 45.5715V57.0704C349.948 57.2207 349.887 57.3637 349.781 57.47C349.675 57.5762 349.532 57.6376 349.382 57.6415Z" fill="#263238"/>
<path d="M367.33 57.6415C367.177 57.6416 367.031 57.5819 366.921 57.4752C366.812 57.3686 366.748 57.2233 366.744 57.0704V46.9606L356.242 57.5026C356.134 57.6111 355.987 57.6721 355.834 57.6721C355.681 57.6721 355.534 57.6111 355.425 57.5026C355.317 57.3941 355.256 57.247 355.256 57.0936C355.256 56.9402 355.317 56.7931 355.425 56.6846L366.852 45.1547C366.935 45.077 367.038 45.025 367.15 45.005C367.262 44.985 367.377 44.9978 367.481 45.0419C367.586 45.0861 367.675 45.1596 367.738 45.2536C367.802 45.3475 367.837 45.458 367.839 45.5715V57.0704C367.837 57.2108 367.784 57.3457 367.691 57.4505C367.597 57.5553 367.469 57.6231 367.33 57.6415Z" fill="#263238"/>
<path d="M374.473 57.6415C374.322 57.6415 374.177 57.5814 374.07 57.4743C373.963 57.3672 373.902 57.2219 373.902 57.0704V46.9606L363.401 57.5026C363.292 57.6111 363.145 57.6721 362.992 57.6721C362.839 57.6721 362.692 57.6111 362.583 57.5026C362.475 57.3941 362.414 57.247 362.414 57.0936C362.414 56.9402 362.475 56.7931 362.583 56.6846L374.072 45.1856C374.149 45.1031 374.25 45.0467 374.361 45.0246C374.471 45.0024 374.586 45.0156 374.689 45.0621C374.798 45.1033 374.893 45.1772 374.959 45.2738C375.025 45.3705 375.06 45.4851 375.059 45.6023V57.1013C375.047 57.2487 374.981 57.3863 374.872 57.4864C374.763 57.5866 374.621 57.642 374.473 57.6415Z" fill="#263238"/>
<path d="M385.36 57.6416C385.208 57.6417 385.061 57.582 384.951 57.4753C384.842 57.3686 384.778 57.2234 384.774 57.0705V46.9607L374.196 57.5027C374.087 57.6112 373.94 57.6721 373.787 57.6721C373.634 57.6721 373.487 57.6112 373.378 57.5027C373.27 57.3942 373.209 57.2471 373.209 57.0937C373.209 56.9403 373.27 56.7931 373.378 56.6846L384.867 45.1857C384.95 45.108 385.053 45.056 385.165 45.036C385.276 45.0159 385.391 45.0288 385.496 45.0729C385.6 45.117 385.69 45.1905 385.753 45.2845C385.817 45.3785 385.852 45.4889 385.854 45.6024V57.1014C385.845 57.2341 385.791 57.3598 385.702 57.458C385.612 57.5561 385.492 57.6209 385.36 57.6416Z" fill="#263238"/>
<path d="M456.774 39.2277H419.316V60.9755H456.774V39.2277Z" fill="#263238"/>
<path opacity="0.4" d="M456.774 39.2277H419.316V60.9755H456.774V39.2277Z" fill="#97B5CD"/>
<path opacity="0.4" d="M456.776 39.2277H436.174V60.9755H456.776V39.2277Z" fill="#97B5CD"/>
<path d="M416.944 39.2277H379.486V60.9755H416.944V39.2277Z" fill="#263238"/>
<path opacity="0.4" d="M416.944 39.2277H379.486V60.9755H416.944V39.2277Z" fill="#97B5CD"/>
<path opacity="0.4" d="M416.929 39.2277H396.326V60.9755H416.929V39.2277Z" fill="#97B5CD"/>
<path d="M222.219 39.2277H64.0137V60.9755H222.219V39.2277Z" fill="#263238"/>
<path opacity="0.4" d="M222.219 39.2277H64.0137V60.9755H222.219V39.2277Z" fill="#97B5CD"/>
<path opacity="0.4" d="M222.238 39.2277H135.201V60.9755H222.238V39.2277Z" fill="#97B5CD"/>
<path d="M465.84 325.283H53.4336V394.493H465.84V325.283Z" fill="#263238"/>
<path opacity="0.3" d="M465.84 325.283H53.4336V394.493H465.84V325.283Z" fill="#97B5CD"/>
<path opacity="0.3" d="M465.843 325.283H139.455V394.493H465.843V325.283Z" fill="#97B5CD"/>
<path opacity="0.2" d="M357.493 335.547H255.051V394.493H357.493V335.547Z" fill="black"/>
<path d="M245.089 342.384H226.383V390.078H245.089V342.384Z" fill="#F0F8FF"/>
<path d="M220.415 342.384H201.709V390.078H220.415V342.384Z" fill="#F0F8FF"/>
<path d="M195.743 342.384H177.037V390.078H195.743V342.384Z" fill="#F0F8FF"/>
<path d="M171.069 342.384H152.363V390.078H171.069V342.384Z" fill="#F0F8FF"/>
<path d="M458.024 342.384H439.318V390.078H458.024V342.384Z" fill="#F0F8FF"/>
<path d="M433.35 342.384H414.645V390.078H433.35V342.384Z" fill="#F0F8FF"/>
<path d="M408.677 342.384H389.971V390.078H408.677V342.384Z" fill="#F0F8FF"/>
<path d="M384.005 342.384H365.299V390.078H384.005V342.384Z" fill="#F0F8FF"/>
<path d="M133.994 342.384H118.928V390.078H133.994V342.384Z" fill="#F0F8FF"/>
<path d="M114.117 342.384H99.0508V390.078H114.117V342.384Z" fill="#F0F8FF"/>
<path d="M94.2539 342.384H79.1875V390.078H94.2539V342.384Z" fill="#F0F8FF"/>
<path d="M74.3945 342.384H59.3281V390.078H74.3945V342.384Z" fill="#F0F8FF"/>
<g opacity="0.5">
<path d="M245.089 342.384H226.383V390.078H245.089V342.384Z" fill="#97B5CD"/>
<path d="M220.415 342.384H201.709V390.078H220.415V342.384Z" fill="#97B5CD"/>
<path d="M195.743 342.384H177.037V390.078H195.743V342.384Z" fill="#97B5CD"/>
<path d="M171.069 342.384H152.363V390.078H171.069V342.384Z" fill="#97B5CD"/>
</g>
<g opacity="0.5">
<path d="M458.022 342.384H439.316V390.078H458.022V342.384Z" fill="#97B5CD"/>
<path d="M433.348 342.384H414.643V390.078H433.348V342.384Z" fill="#97B5CD"/>
<path d="M408.677 342.384H389.971V390.078H408.677V342.384Z" fill="#97B5CD"/>
<path d="M384.003 342.384H365.297V390.078H384.003V342.384Z" fill="#97B5CD"/>
</g>
<g opacity="0.5">
<path d="M133.994 342.384H118.928V390.078H133.994V342.384Z" fill="#97B5CD"/>
<path d="M114.115 342.384H99.0488V390.078H114.115V342.384Z" fill="#97B5CD"/>
<path d="M94.2539 342.384H79.1875V390.078H94.2539V342.384Z" fill="#97B5CD"/>
<path d="M74.3906 342.384H59.3242V390.078H74.3906V342.384Z" fill="#97B5CD"/>
</g>
<g opacity="0.5">
<path d="M351.555 342.384H332.941V390.078H351.555V342.384Z" fill="#97B5CD"/>
<path d="M327.006 342.384H308.393V390.078H327.006V342.384Z" fill="#97B5CD"/>
<path d="M302.455 342.384H255.051V390.078H302.455V342.384Z" fill="#97B5CD"/>
</g>
<path opacity="0.1" d="M357.478 335.547L321.763 394.493H255.051V335.547H357.478Z" fill="black"/>
<path d="M136.818 60.9909H48.4863V323.4H136.818V60.9909Z" fill="#F0F8FF"/>
<path opacity="0.4" d="M136.818 60.9909H48.4863V323.4H136.818V60.9909Z" fill="#97B5CD"/>
<path opacity="0.1" d="M60.3155 60.9909H58.7734V323.4H60.3155V60.9909Z" fill="black"/>
<path opacity="0.1" d="M73.1124 60.9909H71.5703V323.4H73.1124V60.9909Z" fill="black"/>
<path opacity="0.1" d="M85.9132 60.9909H84.3711V323.4H85.9132V60.9909Z" fill="black"/>
<path opacity="0.1" d="M98.712 60.9909H97.1699V323.4H98.712V60.9909Z" fill="black"/>
<path opacity="0.1" d="M111.495 60.9909H109.953V323.4H111.495V60.9909Z" fill="black"/>
<path opacity="0.1" d="M124.298 60.9909H122.756V323.4H124.298V60.9909Z" fill="black"/>
<g opacity="0.1">
<path d="M89.2135 60.9754L48.4863 126.713V94.8859L69.4899 60.9754H89.2135Z" fill="#97B5CD"/>
<path d="M112.561 60.9754L48.4863 164.389V155.113L106.809 60.9754H112.561Z" fill="#97B5CD"/>
</g>
<g opacity="0.1">
<path d="M136.818 138.073V169.899L48.4863 312.487V280.66L136.818 138.073Z" fill="#97B5CD"/>
<path d="M136.819 198.315V207.607L65.0956 323.384H59.3281L136.819 198.315Z" fill="#97B5CD"/>
</g>
<path d="M472.334 50.7267H131.65V335.562H472.334V50.7267Z" fill="#F0F8FF"/>
<path d="M38.3527 335.547H131.65V315.018H38.3527V335.547Z" fill="#F0F8FF"/>
<path d="M38.3527 71.2397L131.65 71.2397V50.7113L38.3527 50.7113V71.2397Z" fill="#F0F8FF"/>
<path d="M38.3527 124.12L131.65 124.12V103.591L38.3527 103.591V124.12Z" fill="#F0F8FF"/>
<path d="M38.3527 176.969H131.65V156.44H38.3527V176.969Z" fill="#F0F8FF"/>
<path d="M38.3527 229.818H131.65V209.289H38.3527V229.818Z" fill="#F0F8FF"/>
<path d="M38.3527 282.698H131.65V262.169H38.3527V282.698Z" fill="#F0F8FF"/>
<g opacity="0.6">
<path d="M38.3527 335.547H131.65V315.018H38.3527V335.547Z" fill="#97B5CD"/>
<path d="M38.3527 71.2396L131.65 71.2396V50.7112L38.3527 50.7112V71.2396Z" fill="#97B5CD"/>
<path d="M38.3527 124.12L131.65 124.12V103.591L38.3527 103.591V124.12Z" fill="#97B5CD"/>
<path d="M38.3527 176.969H131.65V156.44H38.3527V176.969Z" fill="#97B5CD"/>
<path d="M38.3527 229.818H131.65V209.289H38.3527V229.818Z" fill="#97B5CD"/>
<path d="M38.3527 282.698H131.65V262.169H38.3527V282.698Z" fill="#97B5CD"/>
</g>
<path opacity="0.6" d="M472.334 50.7267H131.65V335.562H472.334V50.7267Z" fill="#97B5CD"/>
<path opacity="0.4" d="M472.332 50.7267H142.613V335.562H472.332V50.7267Z" fill="#97B5CD"/>
<path d="M359.976 50.7267H255.051V335.562H359.976V50.7267Z" fill="#F0F8FF"/>
<path d="M461.124 71.2397H368.396V315.018H461.124V71.2397Z" fill="#F0F8FF"/>
<path opacity="0.5" d="M461.124 71.2397H368.396V315.018H461.124V71.2397Z" fill="#97B5CD"/>
<g opacity="0.1">
<path d="M383.105 71.2552H381.562V315.018H383.105V71.2552Z" fill="black"/>
<path d="M399.316 71.2552H397.773V315.018H399.316V71.2552Z" fill="black"/>
<path d="M415.523 71.2552H413.98V315.018H415.523V71.2552Z" fill="black"/>
<path d="M431.73 71.2552H430.188V315.018H431.73V71.2552Z" fill="black"/>
<path d="M447.935 71.2552H446.393V315.018H447.935V71.2552Z" fill="black"/>
<path d="M461.892 315.79H367.623V70.4834H461.892V315.79ZM369.165 314.247H460.35V72.0269H369.165V314.247Z" fill="black"/>
<path d="M461.122 102.804H368.395V104.348H461.122V102.804Z" fill="black"/>
<path d="M461.122 123.332H368.395V124.876H461.122V123.332Z" fill="black"/>
<path d="M461.122 155.669H368.395V157.212H461.122V155.669Z" fill="black"/>
<path d="M461.122 176.197H368.395V177.741H461.122V176.197Z" fill="black"/>
<path d="M461.122 208.533H368.395V210.077H461.122V208.533Z" fill="black"/>
<path d="M461.122 229.062H368.395V230.605H461.122V229.062Z" fill="black"/>
<path d="M461.122 261.382H368.395V262.926H461.122V261.382Z" fill="black"/>
<path d="M461.122 281.911H368.395V283.454H461.122V281.911Z" fill="black"/>
</g>
<g opacity="0.1">
<path d="M461.124 125.509V157.335L368.396 307.008V275.165L461.124 125.509Z" fill="#97B5CD"/>
<path d="M461.123 185.736V195.027L386.793 315.018H381.025L461.123 185.736Z" fill="#97B5CD"/>
</g>
<g opacity="0.1">
<path d="M461.126 250.037V281.864L440.585 315.018H420.877L461.126 250.037Z" fill="#97B5CD"/>
<path d="M461.125 310.264V315.018H458.18L461.125 310.264Z" fill="#97B5CD"/>
</g>
<path d="M246.631 71.2397H153.904V315.018H246.631V71.2397Z" fill="#F0F8FF"/>
<path opacity="0.5" d="M246.631 71.2397H153.904V315.018H246.631V71.2397Z" fill="#97B5CD"/>
<g opacity="0.1">
<path d="M168.634 71.2552H167.092V315.018H168.634V71.2552Z" fill="black"/>
<path d="M184.827 71.2552H183.285V315.018H184.827V71.2552Z" fill="black"/>
<path d="M201.034 71.2552H199.492V315.018H201.034V71.2552Z" fill="black"/>
<path d="M217.241 71.2552H215.699V315.018H217.241V71.2552Z" fill="black"/>
<path d="M233.446 71.2552H231.904V315.018H233.446V71.2552Z" fill="black"/>
<path d="M247.404 315.79H153.135V70.4834H247.404V315.79ZM154.677 314.247H245.862V72.0269H154.677V314.247Z" fill="black"/>
<path d="M246.633 102.804H153.906V104.348H246.633V102.804Z" fill="black"/>
<path d="M246.633 123.332H153.906V124.876H246.633V123.332Z" fill="black"/>
<path d="M246.633 155.669H153.906V157.212H246.633V155.669Z" fill="black"/>
<path d="M246.633 176.197H153.906V177.741H246.633V176.197Z" fill="black"/>
<path d="M246.633 208.533H153.906V210.077H246.633V208.533Z" fill="black"/>
<path d="M246.633 229.062H153.906V230.605H246.633V229.062Z" fill="black"/>
<path d="M246.633 261.382H153.906V262.926H246.633V261.382Z" fill="black"/>
<path d="M246.633 281.911H153.906V283.454H246.633V281.911Z" fill="black"/>
</g>
<g opacity="0.1">
<path d="M196.975 71.2397L153.904 140.758V108.947L177.267 71.2397H196.975Z" fill="#97B5CD"/>
<path d="M220.338 71.2397L153.904 178.466V169.174L214.571 71.2397H220.338Z" fill="#97B5CD"/>
</g>
<g opacity="0.1">
<path d="M246.631 145.065V176.876L161.06 315.018H153.904V294.721L246.631 145.065Z" fill="#97B5CD"/>
<path d="M246.63 205.276V214.583L184.406 315.018H178.639L246.63 205.276Z" fill="#97B5CD"/>
</g>
<path opacity="0.7" d="M359.976 50.7267H255.051V335.562H359.976V50.7267Z" fill="#97B5CD"/>
<path d="M411.76 323.384H407.118H303.211H298.569H255.051V335.547H298.569V394.493H303.211H305.832H310.474V335.547H399.855V394.493H404.497H407.118H411.76V335.547V323.384Z" fill="#F0F8FF"/>
<path opacity="0.3" d="M411.76 323.384V394.493H404.497V335.547H310.474V394.493H303.211V323.384H411.76Z" fill="#97B5CD"/>
<path d="M287.388 156.44H266.246V315.018H287.388V156.44Z" fill="#F0F8FF"/>
<path d="M318.246 156.44H297.104V315.018H318.246V156.44Z" fill="#F0F8FF"/>
<path d="M349.107 156.44H327.965V315.018H349.107V156.44Z" fill="#F0F8FF"/>
<g opacity="0.5">
<path d="M287.388 156.44H266.246V315.018H287.388V156.44Z" fill="#97B5CD"/>
<path d="M318.246 156.44H297.104V315.018H318.246V156.44Z" fill="#97B5CD"/>
<path d="M349.103 156.44H327.961V315.018H349.103V156.44Z" fill="#97B5CD"/>
</g>
<path d="M339.327 95.9972H336.228H317.877V74.5273H314.777H300.574H297.49V95.9972H279.123H276.039V113.315H279.123H297.49V134.785H300.574H314.777H317.877V113.315H336.228H339.327V95.9972Z" fill="#F0F8FF"/>
<path opacity="0.3" d="M279.139 96.0126H276.039V113.315H279.139V96.0126Z" fill="black"/>
<path opacity="0.3" d="M300.592 74.5428H297.508V96.0127H300.592V74.5428Z" fill="black"/>
<path opacity="0.3" d="M300.592 113.315H297.508V134.785H300.592V113.315Z" fill="black"/>
<path d="M419.282 389.569H414.362C409.736 389.569 405.865 394.091 405.865 399.648C405.865 405.204 409.674 409.727 414.362 409.727H419.282C423.985 409.727 427.794 405.22 427.794 399.648C427.794 394.076 424.031 389.569 419.282 389.569Z" fill="#263238"/>
<path opacity="0.2" d="M427.843 399.648C427.843 405.22 424.034 409.727 419.331 409.727C414.628 409.727 410.834 405.22 410.834 399.648C410.834 394.076 414.643 389.569 419.331 389.569C424.019 389.569 427.843 394.091 427.843 399.648Z" fill="#AAB9C7"/>
<path opacity="0.2" d="M419.284 406.038C416.678 406.038 414.473 403.105 414.473 399.648C414.473 396.191 416.678 393.273 419.284 393.273C421.89 393.273 424.111 396.191 424.111 399.648C424.111 403.105 421.952 406.038 419.284 406.038Z" fill="black"/>
<path d="M490.315 389.569H485.411C480.707 389.569 476.898 394.091 476.898 399.648C476.898 405.204 480.707 409.727 485.411 409.727H490.315C495.018 409.727 498.827 405.22 498.827 399.648C498.827 394.076 495.018 389.569 490.315 389.569Z" fill="#263238"/>
<path opacity="0.2" d="M498.828 399.648C498.828 405.22 495.019 409.727 490.315 409.727C485.612 409.727 481.818 405.22 481.818 399.648C481.818 394.076 485.627 389.569 490.315 389.569C495.003 389.569 498.828 394.091 498.828 399.648Z" fill="#AAB9C7"/>
<path opacity="0.2" d="M490.315 406.038C487.709 406.038 485.504 403.105 485.504 399.648C485.504 396.191 487.709 393.273 490.315 393.273C492.921 393.273 495.142 396.191 495.142 399.648C495.142 403.105 492.937 406.038 490.315 406.038Z" fill="black"/>
<path d="M415.477 370.044V397.595C415.481 398.74 415.937 399.837 416.746 400.646C417.555 401.456 418.651 401.913 419.794 401.917H538.136C539.283 401.917 540.383 401.462 541.195 400.652C542.007 399.842 542.465 398.743 542.469 397.595V370.044H415.477Z" fill="#263238"/>
<path d="M459.379 389.569H454.46C449.834 389.569 445.963 394.091 445.963 399.648C445.963 405.204 449.772 409.727 454.46 409.727H459.379C464.006 409.727 467.892 405.22 467.892 399.648C467.892 394.076 464.144 389.569 459.379 389.569Z" fill="#263238"/>
<path opacity="0.2" d="M467.955 399.648C467.955 405.22 464.146 409.727 459.442 409.727C454.739 409.727 450.93 405.22 450.93 399.648C450.93 394.076 454.739 389.569 459.442 389.569C464.146 389.569 467.955 394.091 467.955 399.648Z" fill="#AAB9C7"/>
<path opacity="0.2" d="M459.378 406.038C456.772 406.038 454.566 403.105 454.566 399.648C454.566 396.191 456.772 393.273 459.378 393.273C461.984 393.273 464.205 396.191 464.205 399.648C464.205 403.105 462.061 406.038 459.378 406.038Z" fill="#AAB9C7"/>
<path d="M530.422 389.569H525.503C520.877 389.569 517.006 394.091 517.006 399.648C517.006 405.204 520.815 409.727 525.503 409.727H530.422C535.126 409.727 538.935 405.22 538.935 399.648C538.935 394.076 535.126 389.569 530.422 389.569Z" fill="#263238"/>
<path opacity="0.2" d="M538.937 399.648C538.937 405.22 535.128 409.727 530.425 409.727C525.721 409.727 521.928 405.22 521.928 399.648C521.928 394.076 525.737 389.569 530.425 389.569C535.113 389.569 538.937 394.091 538.937 399.648Z" fill="#AAB9C7"/>
<path opacity="0.2" d="M530.427 406.038C527.82 406.038 525.615 403.105 525.615 399.648C525.615 396.191 527.82 393.273 530.427 393.273C533.033 393.273 535.253 396.191 535.253 399.648C535.253 403.105 533.048 406.038 530.427 406.038Z" fill="#AAB9C7"/>
<path d="M480.119 333.988C480.121 334.365 480.049 334.739 479.907 335.088C479.764 335.437 479.555 335.754 479.29 336.022C479.025 336.29 478.71 336.504 478.363 336.65C478.015 336.796 477.643 336.872 477.266 336.874H447.133C446.74 336.903 446.345 336.851 445.973 336.72C445.601 336.589 445.259 336.383 444.971 336.114C444.682 335.845 444.451 335.52 444.294 335.158C444.136 334.796 444.055 334.406 444.055 334.011C444.055 333.616 444.136 333.226 444.294 332.864C444.451 332.502 444.682 332.177 444.971 331.908C445.259 331.639 445.601 331.433 445.973 331.302C446.345 331.171 446.74 331.119 447.133 331.148H477.266C478.02 331.148 478.743 331.447 479.278 331.979C479.812 332.511 480.115 333.233 480.119 333.988Z" fill="#F0F8FF"/>
<path d="M480.12 333.988C480.122 334.365 480.05 334.739 479.908 335.088C479.765 335.437 479.556 335.754 479.291 336.022C479.026 336.29 478.711 336.504 478.364 336.65C478.017 336.796 477.644 336.872 477.267 336.874H459.487C459.093 336.903 458.698 336.851 458.326 336.72C457.954 336.589 457.613 336.383 457.324 336.114C457.035 335.845 456.805 335.52 456.647 335.158C456.49 334.796 456.408 334.406 456.408 334.011C456.408 333.616 456.49 333.226 456.647 332.864C456.805 332.502 457.035 332.177 457.324 331.908C457.613 331.639 457.954 331.433 458.326 331.302C458.698 331.171 459.093 331.119 459.487 331.148H477.267C478.021 331.148 478.745 331.447 479.279 331.979C479.814 332.511 480.116 333.233 480.12 333.988Z" fill="#263238"/>
<path d="M480.119 333.988C480.121 334.365 480.049 334.739 479.906 335.088C479.764 335.437 479.555 335.754 479.29 336.022C479.025 336.29 478.71 336.504 478.362 336.65C478.015 336.796 477.643 336.872 477.266 336.874H464.112C463.718 336.903 463.323 336.851 462.951 336.72C462.579 336.589 462.238 336.383 461.949 336.114C461.66 335.845 461.43 335.52 461.272 335.158C461.115 334.796 461.033 334.406 461.033 334.011C461.033 333.616 461.115 333.226 461.272 332.864C461.43 332.502 461.66 332.177 461.949 331.908C462.238 331.639 462.579 331.433 462.951 331.302C463.323 331.171 463.718 331.119 464.112 331.148H477.266C478.02 331.148 478.743 331.447 479.278 331.979C479.812 332.511 480.115 333.233 480.119 333.988Z" fill="#F0F8FF"/>
<path d="M548.251 372.081V396.376C548.251 397.194 547.926 397.98 547.348 398.558C546.77 399.137 545.985 399.463 545.167 399.463H540.433C540.356 393.15 535.806 388.041 530.394 388.041C524.981 388.041 520.416 393.165 520.339 399.493L469.449 399.586C469.449 393.211 464.916 388.041 459.395 388.041C453.874 388.041 449.356 393.242 449.34 399.632H439.795H439.44H439.332L401.627 399.71C401.074 399.714 400.527 399.602 400.019 399.382C399.512 399.162 399.056 398.838 398.681 398.431C398.307 398.024 398.021 397.543 397.843 397.019C397.666 396.495 397.599 395.939 397.649 395.388C397.926 392.393 398.312 388.319 398.651 384.583C398.774 383.395 398.882 382.253 398.975 381.219C399.235 378.476 400.34 375.882 402.136 373.794C402.61 373.241 403.125 372.725 403.678 372.251L413.625 363.854L428.938 340.532C430.143 338.702 431.782 337.2 433.709 336.16C435.636 335.121 437.79 334.576 439.98 334.574H536.315C537.29 334.574 538.257 334.752 539.168 335.099C539.826 335.359 540.448 335.701 541.019 336.118C541.393 336.397 541.744 336.707 542.067 337.044C542.725 337.728 543.248 338.529 543.61 339.405C543.702 339.606 543.779 339.822 543.856 340.038C544.013 340.515 544.121 341.006 544.18 341.505L548.251 372.081Z" fill="#F0F8FF"/>
<path opacity="0.7" d="M548.251 372.081V396.376C548.251 397.194 547.926 397.98 547.348 398.558C546.77 399.137 545.985 399.463 545.167 399.463H540.433C540.356 393.15 535.806 388.041 530.394 388.041C524.981 388.041 520.416 393.165 520.339 399.493L469.449 399.586C469.449 393.211 464.916 388.041 459.395 388.041C453.874 388.041 449.356 393.242 449.34 399.632H439.795H439.44H439.332L401.627 399.71C401.074 399.714 400.527 399.602 400.019 399.382C399.512 399.162 399.056 398.838 398.681 398.431C398.307 398.024 398.021 397.543 397.843 397.019C397.666 396.495 397.599 395.939 397.649 395.388C397.926 392.393 398.312 388.319 398.651 384.583C398.774 383.395 398.882 382.253 398.975 381.219C399.235 378.476 400.34 375.882 402.136 373.794C402.61 373.241 403.125 372.725 403.678 372.251L413.625 363.854L428.938 340.532C430.143 338.702 431.782 337.2 433.709 336.16C435.636 335.121 437.79 334.576 439.98 334.574H536.315C537.29 334.574 538.257 334.752 539.168 335.099C539.826 335.359 540.448 335.701 541.019 336.118C541.393 336.397 541.744 336.707 542.067 337.044C542.725 337.728 543.248 338.529 543.61 339.405C543.702 339.606 543.779 339.822 543.856 340.038C544.013 340.515 544.121 341.006 544.18 341.505L548.251 372.081Z" fill="#AAB9C7"/>
<path opacity="0.3" d="M548.264 372.081V396.376C548.264 397.194 547.939 397.98 547.361 398.558C546.783 399.137 545.998 399.463 545.18 399.463H540.446C540.446 393.15 535.82 388.041 530.407 388.041C524.994 388.041 520.429 393.165 520.352 399.494L469.463 399.602C469.463 393.227 464.929 388.056 459.408 388.056C453.887 388.056 449.369 393.258 449.353 399.648H440.178C440.055 399.663 439.931 399.663 439.808 399.648C439.644 399.664 439.478 399.664 439.314 399.648C438.375 399.432 437.546 398.883 436.979 398.103C436.412 397.323 436.146 396.364 436.23 395.403C436.477 392.579 436.847 388.766 437.186 385.263C437.31 383.873 437.448 382.515 437.556 381.296C437.895 377.807 439.583 374.588 442.26 372.328L444.789 370.183L452.191 364.009L464.528 340.393C465.419 338.688 466.76 337.258 468.404 336.26C470.048 335.261 471.934 334.732 473.858 334.729H536.329C537.303 334.728 538.27 334.906 539.181 335.254C539.839 335.513 540.461 335.855 541.032 336.272C541.403 336.555 541.754 336.865 542.081 337.198C542.738 337.882 543.261 338.683 543.623 339.56C543.715 339.76 543.792 339.977 543.869 340.193C544.031 340.669 544.145 341.16 544.209 341.659L547.879 369.442L548.079 370.985L548.264 372.081Z" fill="#AAB9C7"/>
<path d="M415.477 362.928H450.405L460.799 343.789H428.168L415.477 362.928Z" fill="#263238"/>
<path opacity="0.6" d="M401.874 384.722C401.36 384.926 400.81 385.022 400.259 385.004C399.707 384.985 399.164 384.852 398.666 384.614C398.789 383.426 398.897 382.284 399.005 381.25C399.23 378.512 400.309 375.915 402.09 373.825C402.511 374.556 402.798 375.355 402.938 376.187C403.277 377.808 401.874 384.722 401.874 384.722Z" fill="#AAB9C7"/>
<path opacity="0.2" d="M403.864 376.665H431.437C431.437 376.665 427.998 383.657 428.507 385.695C423.977 387.678 419.094 388.728 414.149 388.782C406.146 388.782 403 385.031 403 385.031C403.472 382.265 403.761 379.47 403.864 376.665Z" fill="black"/>
<path d="M434.027 393.428C434.094 393.995 433.939 394.566 433.593 395.021C433.248 395.475 432.741 395.779 432.177 395.866C431.159 395.866 430.342 394.771 430.342 393.428C430.342 392.085 431.159 390.989 432.177 390.989C432.741 391.077 433.248 391.38 433.593 391.835C433.939 392.29 434.094 392.861 434.027 393.428Z" fill="#AAB9C7"/>
<path d="M400.855 395.712C401.868 395.712 402.69 394.62 402.69 393.273C402.69 391.926 401.868 390.835 400.855 390.835C399.841 390.835 399.02 391.926 399.02 393.273C399.02 394.62 399.841 395.712 400.855 395.712Z" fill="#AAB9C7"/>
<path d="M426.454 395.866C426.999 395.866 427.441 395.286 427.441 394.57C427.441 393.854 426.999 393.273 426.454 393.273C425.909 393.273 425.467 393.854 425.467 394.57C425.467 395.286 425.909 395.866 426.454 395.866Z" fill="#AAB9C7"/>
<path d="M404.743 395.866C405.288 395.866 405.73 395.286 405.73 394.57C405.73 393.854 405.288 393.273 404.743 393.273C404.198 393.273 403.756 393.854 403.756 394.57C403.756 395.286 404.198 395.866 404.743 395.866Z" fill="#AAB9C7"/>
<path d="M454.754 363.839L465.641 343.774H479.937V362.913C479.937 362.913 468.278 362.774 465.641 368.13H454.754V363.839Z" fill="#263238"/>
<path d="M499.337 343.789H481.957V362.928H499.337V343.789Z" fill="#263238"/>
<path d="M438.716 369.38H438.068L443.049 365.367H443.666L441.662 369.38H441.029L441.507 368.454H439.857L438.716 369.38ZM441.8 367.837L442.71 366.077L440.567 367.837H441.8Z" fill="#F0F8FF"/>
<path d="M434.039 369.38L437.524 365.367H438.033L437 368.022L440.624 365.367H441.133L437.648 369.38H437.062L439.344 366.756L436.368 368.932H436.105L436.938 366.725L434.61 369.38H434.039Z" fill="#F0F8FF"/>
<path d="M432.611 367.296C432.503 367.127 432.611 366.818 432.965 366.417C433.221 366.099 433.542 365.841 433.907 365.66C434.272 365.479 434.671 365.379 435.078 365.367H436.62L433.12 369.38H431.485C430.637 369.38 430.544 368.979 431.146 368.3C431.53 367.834 432.038 367.486 432.611 367.296ZM432.04 368.84H433.043L434.045 367.682H433.058C432.824 367.681 432.592 367.733 432.381 367.835C432.17 367.936 431.985 368.085 431.84 368.269C431.485 368.624 431.624 368.794 432.04 368.794V368.84ZM434.646 366C434.425 366.004 434.207 366.056 434.008 366.152C433.808 366.247 433.631 366.385 433.49 366.556C433.166 366.926 433.258 367.111 433.675 367.111H434.554L435.51 366H434.646Z" fill="#F0F8FF"/>
<path d="M428.074 369.442C427.164 369.442 427.18 368.809 428.198 367.636L430.171 365.367H430.773L428.83 367.605C428.105 368.439 428.105 368.794 428.645 368.794C429.021 368.736 429.381 368.6 429.703 368.396C430.024 368.191 430.299 367.922 430.511 367.605L432.454 365.367H433.055L431.097 367.636C430.743 368.127 430.292 368.541 429.772 368.851C429.252 369.162 428.674 369.363 428.074 369.442Z" fill="#F0F8FF"/>
<path d="M425.821 369.38H423.477L424.016 368.747H425.743L428.689 365.367H429.306L425.821 369.38Z" fill="#F0F8FF"/>
<path d="M420.488 369.38H419.855L424.837 365.367H425.453L423.449 369.38H422.816L423.294 368.454H421.644L420.488 369.38ZM423.572 367.837L424.482 366.077L422.323 367.837H423.572Z" fill="#F0F8FF"/>
<path d="M420.594 365.367L418.219 368.084L422.414 365.367H422.907L419.422 369.38H418.821L421.18 366.664L417.001 369.38H416.492L419.977 365.367H420.594Z" fill="#F0F8FF"/>
<path d="M414.027 369.442C413.472 369.442 413.225 369.21 413.287 368.763L414.089 368.315C414.089 368.639 414.212 368.793 414.551 368.793C415.506 368.648 416.368 368.139 416.957 367.374C417.682 366.54 417.697 365.953 416.957 365.953C416.495 365.993 416.052 366.159 415.677 366.432V365.984C416.227 365.584 416.88 365.349 417.558 365.305C418.576 365.305 418.576 366.17 417.558 367.374C416.683 368.483 415.422 369.222 414.027 369.442Z" fill="#F0F8FF"/>
<path d="M412.099 368.763L413.055 367.651H411.513L412.037 367.034H413.579L414.489 365.984H412.685L413.225 365.367H415.646L412.145 369.38H409.678L410.217 368.763H412.099Z" fill="#F0F8FF"/>
<path d="M525.613 345.441H521.465V362.928H525.613V345.441Z" fill="#F0F8FF"/>
<path d="M532.26 356.26V352.108H514.788V356.26H532.26Z" fill="#F0F8FF"/>
<path d="M548.099 370.831H493.462C486.407 370.822 479.503 372.877 473.599 376.743L470.176 378.996H442.418V377.453H469.605L472.69 375.431C478.847 371.402 486.044 369.257 493.4 369.257H547.837L548.099 370.831Z" fill="#F0F8FF"/>
<path d="M429.57 385.185C429.986 382.33 432.268 376.665 434.397 374.751C436.525 372.838 444.189 369.596 444.79 370.121C448.06 372.791 439.717 383.673 437.188 385.201C434.659 386.729 429.308 386.96 429.57 385.185Z" fill="#AAB9C7"/>
<path d="M230 41.3043V35.1431L252.137 0.690048H257.064V9.75924H253.938L238.104 34.4531V34.8474H268.445V41.3043H230ZM254.288 51.1621V39.4313L254.338 36.6218V0.690048H261.667V51.1621H254.288Z" fill="#536674"/>
<path d="M294.997 52C291.045 51.9836 287.668 50.9567 284.867 48.9194C282.065 46.8821 279.922 43.9166 278.438 40.0228C276.954 36.1289 276.212 31.4382 276.212 25.9507C276.212 20.4796 276.954 15.8054 278.438 11.928C279.939 8.05055 282.09 5.09321 284.892 3.05593C287.71 1.01864 291.078 0 294.997 0C298.916 0 302.276 1.02686 305.077 3.08057C307.879 5.11785 310.021 8.0752 311.506 11.9526C313.006 15.8136 313.757 20.4796 313.757 25.9507C313.757 31.4547 313.015 36.1536 311.531 40.0474C310.047 43.9248 307.904 46.8904 305.102 48.9441C302.301 50.9814 298.932 52 294.997 52ZM294.997 45.4199C298.465 45.4199 301.175 43.7523 303.126 40.4171C305.094 37.0818 306.078 32.2597 306.078 25.9507C306.078 21.7611 305.627 18.2205 304.727 15.3289C303.843 12.4209 302.568 10.2193 300.9 8.72417C299.249 7.21264 297.281 6.45687 294.997 6.45687C291.545 6.45687 288.835 8.1327 286.868 11.4844C284.9 14.836 283.908 19.6581 283.891 25.9507C283.891 30.1567 284.333 33.7137 285.217 36.6218C286.117 39.5134 287.393 41.7068 289.044 43.2019C290.695 44.6806 292.679 45.4199 294.997 45.4199Z" fill="#536674"/>
<path d="M321.555 41.3043V35.1431L343.691 0.690048H348.619V9.75924H345.492L329.659 34.4531V34.8474H360V41.3043H321.555ZM345.843 51.1621V39.4313L345.893 36.6218V0.690048H353.221V51.1621H345.843Z" fill="#536674"/>
</svg>
