<svg width="50" height="50" viewBox="0 0 50 50" fill="none" xmlns="http://www.w3.org/2000/svg">
<path d="M41.0233 35.1731C41.0233 35.7517 40.8947 36.3463 40.6215 36.9249C40.3483 37.5035 39.9947 38.0499 39.5286 38.5642C38.7411 39.432 37.8733 40.0588 36.8929 40.4606C35.9286 40.8624 34.884 41.0713 33.759 41.0713C32.1197 41.0713 30.3679 40.6856 28.5197 39.8981C26.6715 39.1106 24.8233 38.0499 22.9911 36.716C21.1429 35.366 19.3911 33.8713 17.7197 32.216C16.0643 30.5445 14.5697 28.7928 13.2358 26.9606C11.9179 25.1285 10.8572 23.2963 10.0858 21.4803C9.31434 19.6481 8.92863 17.8963 8.92863 16.2249C8.92863 15.132 9.12148 14.0874 9.5072 13.1231C9.89291 12.1428 10.5036 11.2428 11.3554 10.4392C12.384 9.42668 13.509 8.92847 14.6983 8.92847C15.1483 8.92847 15.5983 9.0249 16.0001 9.21775C16.4179 9.41061 16.7876 9.6999 17.0768 10.1178L20.8054 15.3731C21.0947 15.7749 21.3036 16.1445 21.4483 16.4981C21.5929 16.8356 21.6733 17.1731 21.6733 17.4785C21.6733 17.8642 21.5608 18.2499 21.3358 18.6195C21.1268 18.9892 20.8215 19.3749 20.4358 19.7606L19.2143 21.0303C19.0376 21.207 18.9572 21.416 18.9572 21.6731C18.9572 21.8017 18.9733 21.9142 19.0054 22.0428C19.0536 22.1713 19.1018 22.2678 19.134 22.3642C19.4233 22.8945 19.9215 23.5856 20.6286 24.4213C21.3518 25.257 22.1233 26.1088 22.959 26.9606C23.8268 27.8124 24.6626 28.5999 25.5143 29.3231C26.3501 30.0303 27.0411 30.5124 27.5876 30.8017C27.6679 30.8338 27.7643 30.882 27.8768 30.9303C28.0054 30.9785 28.134 30.9945 28.2786 30.9945C28.5518 30.9945 28.7608 30.8981 28.9376 30.7213L30.159 29.516C30.5608 29.1142 30.9465 28.8088 31.3161 28.616C31.6858 28.391 32.0554 28.2785 32.4572 28.2785C32.7626 28.2785 33.084 28.3428 33.4376 28.4874C33.7911 28.632 34.1608 28.841 34.5626 29.1142L39.8822 32.891C40.3001 33.1803 40.5893 33.5178 40.7661 33.9195C40.9268 34.3213 41.0233 34.7231 41.0233 35.1731Z" stroke="black" stroke-miterlimit="10"/>
</svg>
