<svg width="17" height="16" viewBox="0 0 17 16" fill="none" xmlns="http://www.w3.org/2000/svg">
<path d="M12.8182 3.07108C12.635 3.07108 12.456 3.1254 12.3036 3.22718C12.1513 3.32896 12.0326 3.47362 11.9625 3.64286C11.8924 3.81212 11.8741 3.99836 11.9098 4.17803C11.9455 4.3577 12.0337 4.52275 12.1633 4.65229C12.2928 4.78182 12.4578 4.87004 12.6375 4.90578C12.8172 4.94152 13.0035 4.92318 13.1727 4.85307C13.342 4.78296 13.4866 4.66425 13.5883 4.51192C13.6901 4.35961 13.7445 4.18052 13.7445 3.99733C13.7445 3.75167 13.6469 3.51608 13.4732 3.34237C13.2995 3.16866 13.0639 3.07108 12.8182 3.07108ZM16.3688 4.93902C16.3538 4.29859 16.2339 3.66496 16.0138 3.06336C15.8175 2.54862 15.5121 2.08252 15.1184 1.69714C14.7362 1.3015 14.269 0.997956 13.7522 0.809484C13.1522 0.582678 12.5178 0.459987 11.8765 0.446703C11.0583 0.400391 10.7959 0.400391 8.69641 0.400391C6.59691 0.400391 6.33447 0.400391 5.51629 0.446703C4.87497 0.459987 4.24064 0.582678 3.64063 0.809484C3.12477 0.99987 2.65798 1.30314 2.27441 1.69714C1.87877 2.07935 1.57523 2.54654 1.38675 3.06336C1.15995 3.66337 1.03726 4.2977 1.02397 4.93902C0.977661 5.7572 0.977661 6.01964 0.977661 8.11914C0.977661 10.2186 0.977661 10.4811 1.02397 11.2993C1.03726 11.9405 1.15995 12.5749 1.38675 13.1749C1.57523 13.6918 1.87877 14.1589 2.27441 14.5411C2.65798 14.9351 3.12477 15.2384 3.64063 15.4288C4.24064 15.6556 4.87497 15.7783 5.51629 15.7916C6.33447 15.8379 6.59691 15.8379 8.69641 15.8379C10.7959 15.8379 11.0583 15.8379 11.8765 15.7916C12.5178 15.7783 13.1522 15.6556 13.7522 15.4288C14.269 15.2404 14.7362 14.9368 15.1184 14.5411C15.5138 14.1572 15.8196 13.6906 16.0138 13.1749C16.2339 12.5733 16.3538 11.9397 16.3688 11.2993C16.3688 10.4811 16.4152 10.2186 16.4152 8.11914C16.4152 6.01964 16.4152 5.7572 16.3688 4.93902ZM14.9795 11.2066C14.9738 11.6966 14.8851 12.1821 14.717 12.6423C14.5937 12.9782 14.3958 13.2817 14.1381 13.53C13.8877 13.7851 13.5849 13.9826 13.2505 14.1089C12.7902 14.277 12.3048 14.3657 11.8148 14.3713C11.0429 14.4099 10.7573 14.4176 8.72729 14.4176C6.69725 14.4176 6.41166 14.4176 5.63979 14.3713C5.13104 14.3809 4.62446 14.3025 4.14235 14.1398C3.82263 14.0071 3.53362 13.81 3.29329 13.5609C3.0371 13.3129 2.84162 13.0091 2.7221 12.6732C2.53365 12.2064 2.42913 11.7099 2.41335 11.2066C2.41335 10.4348 2.36704 10.1492 2.36704 8.11914C2.36704 6.08911 2.36704 5.80352 2.41335 5.03164C2.41681 4.53074 2.50825 4.03434 2.6835 3.56508C2.8194 3.23927 3.02797 2.94885 3.29329 2.71602C3.52779 2.45062 3.81762 2.23984 4.14235 2.09852C4.61284 1.92873 5.10874 1.84 5.60891 1.83608C6.38079 1.83608 6.66638 1.78977 8.69641 1.78977C10.7264 1.78977 11.012 1.78977 11.7839 1.83608C12.2739 1.8417 12.7594 1.93043 13.2196 2.09852C13.5703 2.2287 13.8852 2.44034 14.1381 2.71602C14.3911 2.95312 14.5887 3.243 14.717 3.56508C14.8886 4.0351 14.9774 4.53129 14.9795 5.03164C15.0181 5.80352 15.0258 6.08911 15.0258 8.11914C15.0258 10.1492 15.0181 10.4348 14.9795 11.2066ZM8.69641 4.15942C7.91359 4.16095 7.14877 4.39447 6.49862 4.8305C5.84846 5.26653 5.34213 5.88549 5.04362 6.60916C4.7451 7.33284 4.66778 8.12876 4.82144 8.89637C4.9751 9.66396 5.35283 10.3688 5.90692 10.9218C6.461 11.4748 7.16657 11.8512 7.93446 12.0033C8.70236 12.1555 9.49813 12.0766 10.2212 11.7767C10.9443 11.4768 11.5623 10.9692 11.9971 10.3183C12.4318 9.66723 12.6638 8.90197 12.6638 8.11914C12.6649 7.59821 12.5629 7.08221 12.3637 6.60083C12.1647 6.11945 11.8723 5.68219 11.5037 5.31419C11.1349 4.94619 10.6971 4.65472 10.2153 4.45654C9.73353 4.25837 9.21734 4.15738 8.69641 4.15942ZM8.69641 10.6895C8.18804 10.6895 7.6911 10.5387 7.2684 10.2563C6.84571 9.97387 6.51627 9.57244 6.32172 9.10277C6.12718 8.6331 6.07628 8.11629 6.17546 7.61769C6.27464 7.11909 6.51944 6.6611 6.8789 6.30163C7.23837 5.94217 7.69636 5.69737 8.19496 5.59819C8.69356 5.49901 9.21037 5.54991 9.68004 5.74445C10.1497 5.939 10.5511 6.26844 10.8336 6.69113C11.116 7.11383 11.2668 7.61077 11.2668 8.11914C11.2668 8.45669 11.2003 8.79092 11.0711 9.10277C10.9419 9.41462 10.7526 9.69797 10.5139 9.93665C10.2752 10.1753 9.99189 10.3647 9.68004 10.4938C9.36819 10.623 9.03396 10.6895 8.69641 10.6895Z" fill="#EDF7FF"/>
</svg>
