<svg width="65" height="65" viewBox="0 0 65 65" fill="none" xmlns="http://www.w3.org/2000/svg">
<path d="M44.059 7.3997C46.7032 10.0439 46.7032 14.3309 44.059 16.9751C41.4148 19.6193 37.1278 19.6193 34.4836 16.9751C31.8394 14.3309 31.8394 10.0439 34.4836 7.3997C37.1278 4.75552 41.4148 4.75552 44.059 7.3997" stroke="black" stroke-linecap="round" stroke-linejoin="round"/>
<path d="M23.9104 19.423C28.1411 23.6536 28.1411 30.5129 23.9104 34.7436C19.6797 38.9743 12.8204 38.9743 8.58976 34.7436C4.35908 30.5129 4.35908 23.6536 8.58976 19.423C12.8205 15.1923 19.6797 15.1923 23.9104 19.423" stroke="black" stroke-linecap="round" stroke-linejoin="round"/>
<path d="M27.0834 27.0832H5.41675" stroke="black" stroke-linecap="round" stroke-linejoin="round"/>
<path fill-rule="evenodd" clip-rule="evenodd" d="M57.1867 41.0448L43.7534 54.4781C40.5576 57.674 35.3792 57.674 32.1834 54.4781V54.4781C28.9876 51.2823 28.9876 46.104 32.1834 42.9081L45.6167 29.4748C48.8126 26.279 53.9909 26.279 57.1867 29.4748V29.4748C60.3826 32.6706 60.3826 37.8517 57.1867 41.0448Z" stroke="black" stroke-linecap="round" stroke-linejoin="round"/>
<path d="M38.9462 36.2375L50.4296 47.7208" stroke="black" stroke-linecap="round" stroke-linejoin="round"/>
</svg>
