<svg width="65" height="65" viewBox="0 0 65 65" fill="none" xmlns="http://www.w3.org/2000/svg">
<path d="M10.8331 40.625H27.0831" stroke="black" stroke-linecap="round" stroke-linejoin="round"/>
<path fill-rule="evenodd" clip-rule="evenodd" d="M18.7604 23.9199L19.9791 21.9645C20.9 20.4857 22.961 20.2501 24.1933 21.4824L29.9079 27.197C31.2296 28.5186 30.8477 30.7503 29.1604 31.5547L27.01 32.5811C25.9754 33.0767 24.7404 32.8628 23.9279 32.053L19.1423 27.2674C18.2512 26.3763 18.0941 24.9897 18.7604 23.9199Z" stroke="black" stroke-linecap="round" stroke-linejoin="round"/>
<path d="M32.5002 27.0834H33.7C39.6827 27.0834 44.5334 31.934 44.5334 37.9167C44.5334 43.8994 39.6827 48.75 33.7 48.75C28.6571 48.75 24.4592 45.2888 23.2486 40.625" stroke="black" stroke-linecap="round" stroke-linejoin="round"/>
<path d="M39.6553 19.928C47.2061 22.4251 52.658 29.5291 52.658 37.9168C52.658 48.3872 44.17 56.8751 33.6996 56.8751C24.15 56.8751 16.2742 49.8091 14.958 40.6251" stroke="black" stroke-linecap="round" stroke-linejoin="round"/>
<path d="M22.623 20.7108L31.937 11.3968C32.996 10.3379 34.7103 10.3379 35.7666 11.3968L40.062 15.6922C41.121 16.7512 41.121 18.4656 40.062 19.5218L30.6776 28.9062" stroke="black" stroke-linecap="round" stroke-linejoin="round"/>
<path d="M16.25 56.875H51.4583" stroke="black" stroke-linecap="round" stroke-linejoin="round"/>
<path d="M40.5327 16.3419L44.1266 12.7479C45.1856 11.689 45.1856 9.9746 44.1266 8.91835L42.5395 7.33127C41.4806 6.27231 39.7662 6.27231 38.7099 7.33127L35.1187 10.9225" stroke="black" stroke-linecap="round" stroke-linejoin="round"/>
</svg>
