<svg width="50" height="50" viewBox="0 0 50 50" fill="none" xmlns="http://www.w3.org/2000/svg">
<path d="M31.5917 39.5832H12.5" stroke="black" stroke-linecap="round" stroke-linejoin="round"/>
<path d="M36.4581 35.4165C38.2057 35.4236 39.7649 36.5162 40.368 38.1565C40.9711 39.7968 40.4911 41.6391 39.1643 42.7767C37.8376 43.9142 35.9435 44.1072 34.4146 43.2606C33.0673 42.536 32.2454 41.112 32.2917 39.5829V39.5829C32.2917 37.2819 34.157 35.4165 36.4581 35.4165V35.4165" stroke="black" stroke-linecap="round" stroke-linejoin="round"/>
<path d="M8.33311 35.4165C10.0807 35.4236 11.6399 36.5162 12.243 38.1565C12.8461 39.7968 12.3661 41.6391 11.0393 42.7767C9.71256 43.9142 7.81852 44.1072 6.28957 43.2606C4.94231 42.536 4.12037 41.112 4.16665 39.5829V39.5829C4.16666 37.2819 6.03205 35.4165 8.33311 35.4165V35.4165" stroke="black" stroke-linecap="round" stroke-linejoin="round"/>
<path d="M40.625 39.5831H42.7084C44.4343 39.5831 45.8334 38.184 45.8334 36.4581V30.4611C45.8334 29.6323 45.5041 28.8374 44.9181 28.2514L41.6667 25L38.4497 15.349C37.8826 13.6476 36.2903 12.5 34.4969 12.5H8.33337" stroke="black" stroke-linecap="round" stroke-linejoin="round"/>
<path d="M41.6667 25H32.6964C30.6596 25 28.9213 23.5274 28.5864 21.5183L27.0834 12.5" stroke="black" stroke-linecap="round" stroke-linejoin="round"/>
<path d="M15.625 26.0417H21.875" stroke="black" stroke-linecap="round" stroke-linejoin="round"/>
<path d="M18.75 29.1665V22.9165" stroke="black" stroke-linecap="round" stroke-linejoin="round"/>
<path d="M4.16663 27.0832H8.33329" stroke="black" stroke-linecap="round" stroke-linejoin="round"/>
<path d="M6.15869 20.8332H10.4166" stroke="black" stroke-linecap="round" stroke-linejoin="round"/>
<path d="M31.25 12.4998V9.37484C31.25 8.22424 30.3172 7.2915 29.1666 7.2915H25C23.8494 7.2915 22.9166 8.22424 22.9166 9.37484V12.4998" stroke="black" stroke-linecap="round" stroke-linejoin="round"/>
</svg>
