<svg width="166" height="40" viewBox="0 0 166 40" fill="none" xmlns="http://www.w3.org/2000/svg">
<path d="M47.8677 28.9998L42.9172 9.53315H46.8297L50.8487 26.4665L49.8107 25.8531H52.4723L51.3012 26.4665L54.4684 10.2798H57.7156L53.7764 28.9998H47.8677ZM59.4722 28.9998L55.1871 10.2798H58.5673L62.2136 26.4665L61.0692 25.8531H63.6775L62.6661 26.4665L66.206 9.53315H69.9056L65.4874 28.9998H59.4722Z" fill="#EDF7FF"/>
<path d="M78.4262 29.5065C77.1841 29.5065 76.0929 29.2931 75.1524 28.8665C74.2298 28.4398 73.4579 27.8709 72.8369 27.1598C72.2336 26.4309 71.7722 25.622 71.4528 24.7331C71.1512 23.8443 71.0004 22.9376 71.0004 22.0131V21.5065C71.0004 20.5465 71.1512 19.622 71.4528 18.7331C71.7722 17.8265 72.2336 17.0265 72.8369 16.3331C73.4579 15.622 74.2209 15.062 75.1258 14.6531C76.0308 14.2265 77.0776 14.0131 78.2665 14.0131C79.8279 14.0131 81.1321 14.3598 82.179 15.0531C83.2436 15.7287 84.0421 16.6265 84.5744 17.7465C85.1067 18.8487 85.3729 20.0398 85.3729 21.3198V22.6531H72.5707V20.3865H83.0573L81.9128 21.5065C81.9128 20.582 81.7798 19.7909 81.5136 19.1331C81.2475 18.4754 80.8393 17.9687 80.2893 17.6131C79.757 17.2576 79.0827 17.0798 78.2665 17.0798C77.4503 17.0798 76.7583 17.2665 76.1905 17.6398C75.6227 18.0131 75.1879 18.5554 74.8863 19.2665C74.6024 19.9598 74.4604 20.7954 74.4604 21.7731C74.4604 22.6798 74.6024 23.4887 74.8863 24.1998C75.1702 24.8931 75.6049 25.4443 76.1905 25.8531C76.776 26.2443 77.5212 26.4398 78.4262 26.4398C79.3311 26.4398 80.0675 26.262 80.6353 25.9065C81.2031 25.5331 81.5668 25.0798 81.7265 24.5465H85.1334C84.9204 25.542 84.5123 26.4131 83.909 27.1598C83.3057 27.9065 82.5339 28.4843 81.5935 28.8931C80.6708 29.302 79.615 29.5065 78.4262 29.5065Z" fill="#EDF7FF"/>
<path d="M88.6498 28.9998V9.53315H92.3494V28.9998H88.6498ZM86.8399 12.3065V9.53315H92.3494V12.3065H86.8399Z" fill="#EDF7FF"/>
<path d="M96.7593 28.9998V9.53315H100.459V28.9998H96.7593ZM94.9494 12.3065V9.53315H100.459V12.3065H94.9494Z" fill="#EDF7FF"/>
<path d="M113.732 29.5065C111.975 29.5065 110.467 29.1954 109.207 28.5731C107.947 27.9509 106.918 27.142 106.12 26.1465C105.339 25.1509 104.762 24.0665 104.39 22.8931C104.017 21.7198 103.831 20.5909 103.831 19.5065V18.9198C103.831 17.7109 104.017 16.5198 104.39 15.3465C104.78 14.1731 105.374 13.1065 106.173 12.1465C106.971 11.1865 107.983 10.422 109.207 9.85314C110.449 9.26648 111.913 8.97314 113.599 8.97314C115.355 8.97314 116.881 9.29314 118.177 9.93314C119.49 10.5554 120.537 11.4443 121.317 12.5998C122.098 13.7376 122.568 15.0709 122.728 16.5998H118.922C118.78 15.7109 118.461 14.9643 117.964 14.3598C117.485 13.7376 116.872 13.2754 116.127 12.9731C115.382 12.6531 114.539 12.4931 113.599 12.4931C112.641 12.4931 111.789 12.662 111.044 12.9998C110.298 13.3198 109.677 13.782 109.181 14.3865C108.684 14.9909 108.302 15.702 108.036 16.5198C107.788 17.3376 107.663 18.2443 107.663 19.2398C107.663 20.1998 107.788 21.0887 108.036 21.9065C108.302 22.7243 108.693 23.4443 109.207 24.0665C109.722 24.6709 110.352 25.142 111.097 25.4798C111.86 25.8176 112.738 25.9865 113.732 25.9865C115.187 25.9865 116.411 25.6309 117.405 24.9198C118.416 24.1909 119.028 23.1776 119.241 21.8798H123.047C122.87 23.2665 122.4 24.5376 121.637 25.6931C120.874 26.8487 119.827 27.7731 118.496 28.4665C117.165 29.1598 115.577 29.5065 113.732 29.5065Z" fill="#EDF7FF"/>
<path d="M134.7 28.9998V24.7065H134.088V19.9331C134.088 19.0976 133.884 18.4754 133.476 18.0665C133.068 17.6576 132.438 17.4531 131.586 17.4531C131.143 17.4531 130.611 17.462 129.989 17.4798C129.368 17.4976 128.739 17.5243 128.1 17.5598C127.479 17.5776 126.92 17.6043 126.423 17.6398V14.4931C126.831 14.4576 127.292 14.422 127.807 14.3865C128.322 14.3509 128.845 14.3331 129.377 14.3331C129.927 14.3154 130.442 14.3065 130.921 14.3065C132.412 14.3065 133.645 14.502 134.621 14.8931C135.614 15.2843 136.36 15.8976 136.856 16.7331C137.371 17.5687 137.628 18.662 137.628 20.0131V28.9998H134.7ZM130.043 29.3731C128.996 29.3731 128.073 29.1865 127.275 28.8131C126.494 28.4398 125.882 27.9065 125.438 27.2131C125.012 26.5198 124.799 25.6843 124.799 24.7065C124.799 23.6398 125.057 22.7687 125.571 22.0931C126.104 21.4176 126.84 20.9109 127.78 20.5731C128.739 20.2354 129.856 20.0665 131.134 20.0665H134.488V22.2798H131.081C130.229 22.2798 129.572 22.4931 129.111 22.9198C128.668 23.3287 128.446 23.862 128.446 24.5198C128.446 25.1776 128.668 25.7109 129.111 26.1198C129.572 26.5287 130.229 26.7331 131.081 26.7331C131.595 26.7331 132.065 26.6443 132.491 26.4665C132.935 26.2709 133.299 25.9509 133.583 25.5065C133.884 25.0443 134.053 24.422 134.088 23.6398L134.993 24.6798C134.905 25.6931 134.656 26.5465 134.248 27.2398C133.858 27.9331 133.308 28.4665 132.598 28.8398C131.906 29.1954 131.054 29.3731 130.043 29.3731Z" fill="#EDF7FF"/>
<path d="M141.591 28.9998V14.5198H144.519V20.6531H144.439C144.439 18.5731 144.883 16.9998 145.77 15.9331C146.657 14.8665 147.961 14.3331 149.682 14.3331H150.215V17.5598H149.203C147.961 17.5598 146.994 17.8976 146.302 18.5731C145.628 19.2309 145.291 20.1909 145.291 21.4531V28.9998H141.591Z" fill="#EDF7FF"/>
<path d="M159.053 29.5065C157.811 29.5065 156.72 29.2931 155.78 28.8665C154.857 28.4398 154.085 27.8709 153.464 27.1598C152.861 26.4309 152.399 25.622 152.08 24.7331C151.778 23.8443 151.627 22.9376 151.627 22.0131V21.5065C151.627 20.5465 151.778 19.622 152.08 18.7331C152.399 17.8265 152.861 17.0265 153.464 16.3331C154.085 15.622 154.848 15.062 155.753 14.6531C156.658 14.2265 157.705 14.0131 158.894 14.0131C160.455 14.0131 161.759 14.3598 162.806 15.0531C163.871 15.7287 164.669 16.6265 165.202 17.7465C165.734 18.8487 166 20.0398 166 21.3198V22.6531H153.198V20.3865H163.684L162.54 21.5065C162.54 20.582 162.407 19.7909 162.141 19.1331C161.875 18.4754 161.466 17.9687 160.916 17.6131C160.384 17.2576 159.71 17.0798 158.894 17.0798C158.077 17.0798 157.385 17.2665 156.818 17.6398C156.25 18.0131 155.815 18.5554 155.513 19.2665C155.229 19.9598 155.088 20.7954 155.088 21.7731C155.088 22.6798 155.229 23.4887 155.513 24.1998C155.797 24.8931 156.232 25.4443 156.818 25.8531C157.403 26.2443 158.148 26.4398 159.053 26.4398C159.958 26.4398 160.695 26.262 161.262 25.9065C161.83 25.5331 162.194 25.0798 162.354 24.5465H165.76C165.548 25.542 165.139 26.4131 164.536 27.1598C163.933 27.9065 163.161 28.4843 162.221 28.8931C161.298 29.302 160.242 29.5065 159.053 29.5065Z" fill="#EDF7FF"/>
<path fill-rule="evenodd" clip-rule="evenodd" d="M30.635 19.9998L32.3766 18.2548C33.3385 17.2911 33.3385 15.7286 32.3766 14.7649C31.4147 13.8012 29.8552 13.8012 28.8934 14.7649L23.6685 19.9998L28.8934 25.2347C29.8552 26.1984 31.4147 26.1984 32.3766 25.2347C33.3385 24.271 33.3385 22.7085 32.3766 21.7448L30.635 19.9998ZM27.7323 13.6016C29.3354 11.9954 31.9346 11.9954 33.5377 13.6016C35.1408 15.2078 35.1408 17.812 33.5377 19.4182L32.9572 19.9998L33.5377 20.5815C35.1408 22.1876 35.1408 24.7918 33.5377 26.398C31.9346 28.0042 29.3354 28.0042 27.7323 26.398L21.3463 19.9998L27.7323 13.6016Z" fill="#EDF7FF"/>
<path fill-rule="evenodd" clip-rule="evenodd" d="M9.28869 20.0002L7.54706 21.7452C6.58519 22.7089 6.58519 24.2714 7.54706 25.2351C8.50893 26.1988 10.0684 26.1988 11.0303 25.2351L16.2552 20.0002L11.0303 14.7653C10.0684 13.8016 8.50893 13.8016 7.54706 14.7653C6.58518 15.729 6.58518 17.2915 7.54706 18.2552L9.28869 20.0002ZM12.1914 26.3984C10.5883 28.0046 7.9891 28.0046 6.38597 26.3984C4.78285 24.7922 4.78285 22.188 6.38597 20.5818L6.96652 20.0002L6.38597 19.4185C4.78285 17.8124 4.78285 15.2082 6.38597 13.602C7.9891 11.9958 10.5883 11.9958 12.1914 13.602L18.5774 20.0002L12.1914 26.3984Z" fill="#EDF7FF"/>
<path fill-rule="evenodd" clip-rule="evenodd" d="M19.9618 30.6934L21.7035 32.4383C22.6653 33.402 24.2248 33.402 25.1867 32.4383C26.1486 31.4746 26.1486 29.9121 25.1867 28.9484L19.9618 23.7135L14.7369 28.9484C13.7751 29.9121 13.7751 31.4746 14.7369 32.4383C15.6988 33.402 17.2583 33.402 18.2202 32.4383L19.9618 30.6934ZM26.3478 27.7851C27.9509 29.3913 27.9509 31.9954 26.3478 33.6016C24.7447 35.2078 22.1455 35.2078 20.5424 33.6016L19.9618 33.02L19.3813 33.6016C17.7782 35.2078 15.179 35.2078 13.5759 33.6016C11.9727 31.9954 11.9727 29.3913 13.5759 27.7851L19.9618 21.3869L26.3478 27.7851Z" fill="#EDF7FF"/>
<path fill-rule="evenodd" clip-rule="evenodd" d="M19.9618 9.30664L18.2202 7.56168C17.2583 6.59797 15.6988 6.59797 14.737 7.56168C13.7751 8.5254 13.7751 10.0879 14.737 11.0516L19.9618 16.2865L25.1867 11.0516C26.1486 10.0879 26.1486 8.5254 25.1867 7.56168C24.2249 6.59797 22.6653 6.59797 21.7035 7.56168L19.9618 9.30664ZM13.5759 12.2149C11.9727 10.6087 11.9727 8.00457 13.5759 6.39838C15.179 4.79219 17.7782 4.79219 19.3813 6.39838L19.9618 6.98003L20.5424 6.39838C22.1455 4.79219 24.7447 4.79219 26.3478 6.39838C27.9509 8.00457 27.9509 10.6087 26.3478 12.2149L19.9618 18.6131L13.5759 12.2149Z" fill="#EDF7FF"/>
</svg>
