<svg width="16" height="11" viewBox="0 0 16 11" fill="none" xmlns="http://www.w3.org/2000/svg">
<path d="M15.0347 3.0493C15.0347 3.0493 14.8945 2.05594 14.4627 1.61977C13.916 1.04571 13.3047 1.04289 13.0244 1.00912C11.0169 0.862793 8.00272 0.862793 8.00272 0.862793H7.99712C7.99712 0.862793 4.98301 0.862793 2.97548 1.00912C2.6951 1.04289 2.08386 1.04571 1.53712 1.61977C1.10533 2.05594 0.967942 3.0493 0.967942 3.0493C0.967942 3.0493 0.822144 4.21712 0.822144 5.38213V6.47397C0.822144 7.63899 0.965138 8.80681 0.965138 8.80681C0.965138 8.80681 1.10533 9.80014 1.53431 10.2363C2.08106 10.8104 2.79884 10.7907 3.11848 10.8526C4.26803 10.9623 7.99992 10.9961 7.99992 10.9961C7.99992 10.9961 11.0169 10.9905 13.0244 10.847C13.3047 10.8132 13.916 10.8104 14.4627 10.2363C14.8945 9.80014 15.0347 8.80681 15.0347 8.80681C15.0347 8.80681 15.1777 7.6418 15.1777 6.47397V5.38213C15.1777 4.21712 15.0347 3.0493 15.0347 3.0493ZM6.5167 7.79938V3.74999L10.3943 5.78172L6.5167 7.79938Z" fill="#EDF7FF"/>
</svg>
